# xmcd
#
# Track frame offsets:
#	187
#	16792
#	32902
#	46640
#	59937
#	72525
#	88250
#	103230
#	127472
#	142387
#	153902
#	167925
#	180057
#	193190
#	207582
#	222220
#	233780
#	248575
#	262002
#	273535
#
# Disc length: 3835 seconds
#
# Revision: 3
# Processed by: cddbd v1.5.2PL0 Copyright (c) Steve Scherf et al.
# Submitted via: EasyCDDAExtractor 16.0.6.1
#
DISCID=3d0ef914
DTITLE=Tommy Dorsey - The Legend - Vol. 1
DYEAR=1986
DGENRE=Blues
TTITLE0=*I'm Getting Sentimental Over You
TTITLE1=Star Dust
TTITLE2=That's a Plenty
TTITLE3=After You've Gone
TTITLE4=Keeping Out of Mischief Now
TTITLE5=Liebestraum
TTITLE6=Satan Takes a Holiday
TTITLE7=Stop Look and Listen
TTITLE8=Beale Street Blues
TTITLE9=Night and Day
TTITLE10=Smoke Gets in Your Eyes
TTITLE11=Once in a While
TTITLE12=The Lady is a Tramp
TTITLE13=Who
TTITLE14=Little White Lies
TTITLE15=Shine on Harvest Moon
TTITLE16=What If I Do
TTITLE17=I Hadn't Anyone 'til You
TTITLE18=A Tisket a Tasket
TTITLE19=Boogie Woogie
EXTD=ID3G:   0
EXTT0=
EXTT1=
EXTT2=
EXTT3=
EXTT4=
EXTT5=
EXTT6=
EXTT7=
EXTT8=
EXTT9=
EXTT10=
EXTT11=
EXTT12=
EXTT13=
EXTT14=
EXTT15=
EXTT16=
EXTT17=
EXTT18=
EXTT19=
PLAYORDER=
